<?xml version="1.0" encoding="utf-8"?>
<!-- Generator: Adobe Illustrator 16.0.0, SVG Export Plug-In . SVG Version: 6.00 Build 0)  -->
<!DOCTYPE svg PUBLIC "-//W3C//DTD SVG 1.1//EN" "http://www.w3.org/Graphics/SVG/1.1/DTD/svg11.dtd">
<svg version="1.1" id="Layer_1" xmlns="http://www.w3.org/2000/svg" xmlns:xlink="http://www.w3.org/1999/xlink" x="0px" y="0px"
	 width="566.929px" height="174.181px" viewBox="15.176 333.854 566.929 174.181"
	 enable-background="new 15.176 333.854 566.929 174.181" xml:space="preserve">
<g>
	<g>
		<path fill="#E2231A" d="M540.052,423.96l5.541-9.007l8.727-0.004l-2.253,9.011l24.026,0.002l6.012-48.059H552.07l-36.051,48.059
			L540.052,423.96z M556.568,405.942h-5.451l9.212-15.021L556.568,405.942z"/>
	</g>
	<g>
		<polygon fill="#E2231A" points="485.987,423.958 510.016,423.96 519.778,384.916 537.802,384.914 540.054,375.904 
			479.982,375.904 477.729,384.914 495.751,384.914 		"/>
	</g>
	<g>
		<polygon fill="#E2231A" points="416.904,423.96 428.922,375.904 476.979,375.904 474.726,384.914 450.695,384.916 
			448.066,395.429 466.09,395.429 463.851,404.389 445.826,404.389 443.185,414.953 467.216,414.949 464.96,423.962 		"/>
	</g>
	<g>
		<polygon fill="#E2231A" points="422.914,375.904 392.879,375.904 374.856,399.933 368.851,375.904 338.813,375.904 
			326.798,423.96 350.824,423.96 356.836,399.934 362.84,423.962 374.853,423.962 392.879,399.934 386.867,423.96 410.896,423.96 		
			"/>
	</g>
	<g>
		<path fill="#E2231A" d="M284.746,423.96l5.544-9.007l8.725-0.004l-2.254,9.011l24.027,0.002l6.013-48.059h-30.036l-36.047,48.059
			L284.746,423.96z M301.266,405.942h-5.452l9.211-15.021L301.266,405.942z"/>
	</g>
	<g>
		<polygon fill="#E2231A" points="254.712,423.96 224.675,423.96 230.686,375.904 254.713,375.904 246.452,408.944 266.729,375.904 
			290.758,375.904 		"/>
	</g>
	<g>
		<polygon fill="#E2231A" points="83.505,423.962 107.534,423.962 113.544,399.934 119.548,423.962 149.584,423.962 
			161.603,375.904 137.575,375.904 131.565,399.934 125.56,375.904 95.523,375.904 		"/>
	</g>
	<g>
		<path fill="#E2231A" d="M215.667,375.904h-36.043c-6.637,0-13.358,5.379-15.021,12.015l-6.008,24.029
			c-1.659,6.634,2.375,12.012,9.011,12.012h36.043c6.635,0,13.357-5.378,15.02-12.012l6.008-24.029
			C226.337,381.283,222.303,375.904,215.667,375.904z M187.883,414.951c-4.88,0-5.338-2.688-4.505-6.01l4.506-18.02
			c0.83-3.318,4.19-6.007,7.509-6.007c5.632,0,5.336,2.686,4.505,6.005l-4.507,18.022
			C194.563,412.261,191.199,414.951,187.883,414.951z"/>
	</g>
	<path fill="#E2231A" d="M579.852,432.97l0.75-3.004H75.997l15.022-60.07h-3.005l-15.021,60.07h-20.74
		c0.556-2.955,1.21-5.961,1.972-9.007c10.787-43.131,38.358-78.093,61.579-78.093c7.112,0,12.988,3.281,17.414,9.068
		c-4.898-11.334-12.898-18.08-23.417-18.08c-25.297,0-55.559,38.999-67.588,87.104c-0.761,3.042-1.43,6.047-2.009,9.006H15.928
		l-0.752,3.006h57.066l-6.76,27.033h3.003l6.761-27.033h59.572c-12.473,37.414-37.05,66.055-58.071,66.055
		c-7.106,0-12.979-3.281-17.403-9.061c4.897,11.328,12.896,18.07,23.41,18.07c23.15,0,50.453-32.656,64.141-75.064H579.852
		L579.852,432.97z"/>
</g>
</svg>
